<svg data-v-423bf9ae="" xmlns="http://www.w3.org/2000/svg" viewBox="0 0 714 90" class="iconLeftSlogan"><!----><!----><!----><g data-v-423bf9ae="" id="f9e87eec-f726-4268-bdc5-ce05521fb527" fill="white" transform="matrix(5.602241039276123,0,0,5.602241039276123,126.0628890991211,-17.198881149291992)"><path d="M10.36 13.58L10.36 3.92L7.84 3.92L7.84 8.05C7.84 8.61 7.85 9.60 7.92 10.58L4.26 3.92L1.12 3.92L1.12 13.58L3.64 13.58L3.64 9.59C3.64 9.03 3.64 8.18 3.56 7.20L7.07 13.58ZM13.13 3.07C12.35 3.07 11.83 3.54 11.83 4.30C11.83 5.05 12.35 5.53 13.13 5.53C13.92 5.53 14.43 5.05 14.43 4.30C14.43 3.54 13.92 3.07 13.13 3.07ZM14.39 13.58L14.39 6.10L11.87 6.10L11.87 13.58ZM19.42 5.91C17.22 5.91 15.48 7.35 15.48 9.93C15.48 12.39 17.11 13.78 19.25 13.78C21.28 13.78 22.78 12.77 23.06 10.84L20.58 10.84C20.44 11.65 19.96 12.07 19.39 12.07C18.54 12.07 18.06 11.37 18.06 9.77C18.06 8.33 18.52 7.62 19.36 7.62C19.99 7.62 20.48 7.98 20.59 8.96L23.03 8.96C22.96 7.28 21.62 5.91 19.42 5.91ZM27.72 5.91C25.27 5.91 23.70 7.43 23.70 9.84C23.70 12.24 25.27 13.78 27.72 13.78C30.17 13.78 31.74 12.24 31.74 9.84C31.74 7.43 30.17 5.91 27.72 5.91ZM27.72 12.07C26.82 12.07 26.28 11.33 26.28 9.84C26.28 8.34 26.82 7.62 27.72 7.62C28.62 7.62 29.16 8.34 29.16 9.84C29.16 11.33 28.62 12.07 27.72 12.07ZM35.29 3.29L32.77 3.29L32.77 10.93C32.77 11.49 32.77 11.87 32.80 12.26C32.86 13.26 33.52 13.72 34.68 13.72C35.24 13.72 35.69 13.69 36.15 13.65L36.15 11.94C35.49 11.97 35.36 11.87 35.32 11.58C35.29 11.40 35.29 11.24 35.29 10.89ZM41.62 13.58L44.09 13.58C43.97 12.75 43.95 12.25 43.95 11.69L43.95 9.59C43.95 9.13 43.93 8.69 43.90 8.32C43.79 6.96 42.98 5.91 40.61 5.91C38.72 5.91 37.17 6.90 37.16 8.65L39.54 8.64C39.58 7.99 39.91 7.62 40.50 7.62C41.05 7.62 41.36 7.95 41.40 8.33C41.43 8.57 41.43 8.72 41.43 8.88L41.43 8.99L40.95 8.99C38.42 8.99 36.90 9.97 36.90 11.56C36.90 13.01 38.07 13.78 39.30 13.78C39.98 13.78 40.61 13.61 41.15 13.27L41.45 12.49ZM40.33 12.07C39.83 12.07 39.48 11.82 39.48 11.37C39.48 10.63 40.29 10.33 41.43 10.42L41.43 10.91C41.43 11.69 40.84 12.07 40.33 12.07ZM48.54 5.91C46.55 5.91 45.26 6.83 45.26 8.32C45.26 9.59 46.12 10.25 47.54 10.58C48.87 10.89 49.35 11.16 49.35 11.63C49.35 12.03 49 12.21 48.55 12.21C48.02 12.21 47.57 11.83 47.43 11.26L44.95 11.26C45.15 12.94 46.54 13.78 48.57 13.78C50.37 13.78 51.87 13.03 51.87 11.44C51.87 10.00 50.90 9.41 49.55 9.07C48.12 8.72 47.78 8.44 47.78 8.02C47.78 7.70 48.03 7.48 48.38 7.48C48.83 7.48 49.08 7.77 49.20 8.29L51.67 8.29C51.48 6.93 50.40 5.91 48.54 5.91ZM66.72 3.92L62.89 3.92L61.25 11.13L59.61 3.92L55.68 3.92L55.68 13.58L58.20 13.58L58.20 9.52C58.20 8.68 58.20 7.43 58.17 6.45C58.32 7.43 58.60 8.68 58.83 9.52L59.91 13.58L62.50 13.58L63.56 9.52C63.78 8.67 64.06 7.43 64.23 6.45C64.20 7.43 64.20 8.68 64.20 9.52L64.20 13.58L66.72 13.58ZM74.03 11.07L74.84 13.58L77.59 13.58L74.10 3.92L71.02 3.92L67.54 13.58L70.21 13.58L71.02 11.07ZM72.53 6.15L73.43 9.11L71.64 9.11ZM86.03 11.23C85.89 10.07 85.53 9.32 84.52 8.96C85.81 8.58 86.46 7.77 86.46 6.55C86.46 4.84 85.25 4.16 83.85 3.99C83.33 3.93 82.94 3.92 82.33 3.92L78.50 3.92L78.50 13.58L81.02 13.58L81.02 9.91L81.58 9.91C81.86 9.91 82.10 9.91 82.38 9.93C83.02 9.97 83.44 10.58 83.57 11.65C83.65 12.33 83.79 12.89 84.01 13.58L86.76 13.58C86.38 13.01 86.16 12.32 86.03 11.23ZM81.02 8.09L81.02 5.88L82.00 5.88C82.26 5.88 82.49 5.88 82.67 5.89C83.31 5.95 83.83 6.17 83.83 6.99C83.83 7.80 83.24 8.02 82.60 8.08C82.42 8.09 82.19 8.09 81.93 8.09ZM95.45 11.62L90.57 11.62L90.57 9.72L95.03 9.72L95.03 7.76L90.57 7.76L90.57 5.88L95.31 5.88L95.31 3.92L88.05 3.92L88.05 13.58L95.45 13.58ZM104.86 5.88L104.86 3.92L96.07 3.92L96.07 5.88L99.20 5.88L99.20 13.58L101.72 13.58L101.72 5.88Z"></path></g><!----><g data-v-423bf9ae="" id="6b53834e-7fbc-4b32-ab87-29d41f56073a" transform="matrix(1.1824990510940552,0,0,1.1824990510940552,-1.5388129949569702,-13.163345336914062)" stroke="none" fill="white"><path d="M68.602 42.891h8.5v1.852h-8.5zM68.602 46.742h17v1.852h-17zM68.602 50.594h17v1.852h-17zM68.602 54.445h17v1.854h-17zM68.602 30.987h17v9.85h-17zM68.602 22.878h17v4.925h-17z"></path><path d="M68.602 42.891h8.5v1.852h-8.5zM68.602 30.987h17v9.85h-17zM68.602 46.742h17v1.852h-17zM68.602 22.878h17v4.925h-17zM68.602 54.445h17v1.854h-17zM68.602 50.594h17v1.852h-17zM47.681 72.504a1.845 1.845 0 1 1 1.846 1.846 1.846 1.846 0 0 1-1.846-1.846z"></path><path d="M49.527 70.658a1.845 1.845 0 1 1 1.847 1.846c0-1.02-.827-1.846-1.847-1.846z"></path><circle cx="49.527" cy="72.504" r="1.846"></circle><path d="M61.092 15.67H6.035v49.025h55.711V15.67h-.654zm-19.77 24.601v1.461h-23.71v-1.461h23.71zm-8.574-.947H17.612v-1.463h15.136v1.463zM12.417 20.572h4.169v1.462h-4.169v-1.462zm0 2.463h10.391v1.462H12.417v-1.462zm0 2.462h13.855v1.462H12.417v-1.462zm0 2.462h10.391v1.462H12.417v-1.462zm0 2.463h10.391v1.462H12.417v-1.462zm0 2.462h4.169v1.462h-4.169v-1.462zm0 2.464h6.97v1.461h-6.97v-1.461zm0 2.513h4.169v1.463h-4.169v-1.463zm0 2.41h4.169v1.461h-4.169v-1.461zm0 2.463h4.169v1.461h-4.169v-1.461zm0 4.925h4.169v1.462h-4.169v-1.462zm-1 11.312h-1.264v-1.463h1.264v1.463zm0-2.463h-1.264v-1.462h1.264v1.462zm0-2.462h-1.264v-1.462h1.264v1.462zm0-2.462h-1.264v-1.463h1.264v1.463zm0-2.463h-1.264v-1.462h1.264v1.462zm0-2.463h-1.264v-1.463h1.264v1.463zm0-2.463h-1.264v-1.461h1.264v1.461zm0-2.463h-1.264v-1.461h1.264v1.461zm0-2.461h-1.264v-1.463h1.264v1.463zm0-2.462h-1.264v-1.461h1.264v1.461zm0-2.463h-1.264v-1.462h1.264v1.462zm0-2.462h-1.264v-1.462h1.264v1.462zm0-2.463h-1.264v-1.462h1.264v1.462zm0-2.462h-1.264v-1.462h1.264v1.462zm0-2.462h-1.264v-1.462h1.264v1.462zm0-2.463h-1.264v-1.462h1.264v1.462zm7.97 36.937h-6.97v-1.463h6.97v1.463zm1.555-2.463h-8.525v-1.462h8.525v1.462zm8.526-2.462H12.417v-1.462h17.051v1.462zm3.28-2.462H12.417v-1.463h20.331v1.463zm12.883-2.463H17.612v-1.462h28.019v1.462zm0-2.463H12.417v-1.463h33.214v1.463zm5.159-2.463H17.612v-1.461H50.79v1.461zm5.169 0H51.79v-1.461h4.169v1.461z"></path><circle cx="49.527" cy="72.504" r="1.846"></circle><path d="M94.195 11.854H4.938c-1.563 0-2.91 1.189-2.91 2.752V74.213c0 1.563 1.347 2.877 2.91 2.877h35.146c-.041.896-.321 4.756-2.155 6.623-1.445 1.475-3.453 2.854-2.669 3.563.19.437 1.091.688 3.14.688h23.122c2.334 0 3.15-.383 3.158-.952h-.08v-.189h-.082c-.104-.77-1.662-1.906-2.84-3.105-1.834-1.867-2.113-5.725-2.154-6.621h34.674c1.564 0 2.83-1.314 2.83-2.879V14.607c-.001-1.565-1.269-2.753-2.833-2.753zM49.527 74.35a1.846 1.846 0 1 1 0-3.692 1.846 1.846 0 1 1 0 3.692zm43.494-9.655H6.035V15.67h86.986v49.025z"></path></g><!----><g data-v-423bf9ae="" id="8a736b8f-931a-49a9-be87-f102c47517c6" fill="white" transform="matrix(2.029513120651245,0,0,2.029513120651245,130.0440673828125,59.999996185302734)"><path d="M5.04 2.21L1.13 2.21L1.13 11.48L5.04 11.48C7.25 11.48 9.30 9.74 9.30 6.85C9.30 3.95 7.25 2.21 5.04 2.21ZM5.00 10.49L2.18 10.49L2.18 3.21L5.00 3.21C6.97 3.21 8.25 4.86 8.25 6.85C8.25 8.83 6.97 10.49 5.00 10.49ZM24.81 3.22L24.81 2.21L17.99 2.21L17.99 11.48L24.81 11.48L24.81 10.47L19.04 10.47L19.04 7.35L24.19 7.35L24.19 6.33L19.04 6.33L19.04 3.22ZM20.59 1.47L21.45 1.47L22.95 0L21.45 0ZM39.97 2.21L36.76 10.29L33.56 2.21L32.41 2.21L36.16 11.48L37.37 11.48L41.12 2.21ZM56.11 3.22L56.11 2.21L49.29 2.21L49.29 11.48L56.11 11.48L56.11 10.47L50.34 10.47L50.34 7.35L55.50 7.35L55.50 6.33L50.34 6.33L50.34 3.22ZM64.81 2.21L64.81 11.48L70.91 11.48L70.91 10.47L65.86 10.47L65.86 2.21ZM82.98 2.10C80.16 2.10 78.27 4.21 78.27 6.85C78.27 9.48 80.16 11.59 82.98 11.59C85.79 11.59 87.68 9.48 87.68 6.85C87.68 4.21 85.79 2.10 82.98 2.10ZM82.98 10.57C80.72 10.57 79.32 8.93 79.32 6.85C79.32 4.76 80.72 3.12 82.98 3.12C85.23 3.12 86.63 4.76 86.63 6.85C86.63 8.93 85.23 10.57 82.98 10.57ZM97.41 8.18L100.53 8.18C102.51 8.18 103.73 7.03 103.73 5.19C103.73 3.37 102.51 2.21 100.53 2.21L96.36 2.21L96.36 11.48L97.41 11.48ZM100.46 3.21C101.92 3.21 102.68 3.96 102.68 5.19C102.68 6.44 101.92 7.20 100.46 7.20L97.41 7.20L97.41 3.21ZM113.20 8.18L116.33 8.18C118.30 8.18 119.52 7.03 119.52 5.19C119.52 3.37 118.30 2.21 116.33 2.21L112.15 2.21L112.15 11.48L113.20 11.48ZM116.26 3.21C117.71 3.21 118.47 3.96 118.47 5.19C118.47 6.44 117.71 7.20 116.26 7.20L113.20 7.20L113.20 3.21ZM134.76 3.22L134.76 2.21L127.95 2.21L127.95 11.48L134.76 11.48L134.76 10.47L129.00 10.47L129.00 7.35L134.15 7.35L134.15 6.33L129.00 6.33L129.00 3.22ZM150.18 2.21L150.18 7.52C150.18 9.67 148.75 10.57 147.28 10.57C145.81 10.57 144.40 9.67 144.40 7.52L144.40 2.21L143.35 2.21L143.35 7.49C143.35 9.95 144.97 11.59 147.28 11.59C149.60 11.59 151.23 9.94 151.23 7.49L151.23 2.21ZM161.43 7.92L164.65 7.92L166.89 11.48L168.14 11.48L165.70 7.74C166.74 7.50 167.94 6.90 167.94 5.11C167.94 3.35 166.73 2.21 164.82 2.21L160.38 2.21L160.38 11.48L161.43 11.48ZM161.43 3.21L164.70 3.21C166.01 3.21 166.89 3.93 166.89 5.11C166.89 6.55 165.63 6.93 164.64 6.93L161.43 6.93ZM192.30 3.70L194.81 11.48L196 11.48L198.88 2.21L197.78 2.21L195.40 10.00L192.91 2.21L191.70 2.21L189.21 10.00L186.83 2.21L185.72 2.21L188.61 11.48L189.80 11.48ZM213.96 3.22L213.96 2.21L207.14 2.21L207.14 11.48L213.96 11.48L213.96 10.47L208.19 10.47L208.19 7.35L213.35 7.35L213.35 6.33L208.19 6.33L208.19 3.22ZM228.49 6.75C229.15 6.45 229.74 5.85 229.74 4.66C229.74 3.54 229.00 2.21 226.81 2.21L222.66 2.21L222.66 11.48L227.05 11.48C229.17 11.48 230.22 10.43 230.22 9.04C230.22 7.66 229.28 7 228.49 6.75ZM223.71 3.21L226.93 3.21C228.20 3.21 228.69 3.98 228.69 4.75C228.69 5.88 227.78 6.36 226.81 6.36L223.71 6.36ZM227.16 10.49L223.71 10.49L223.71 7.31L227.05 7.31C228.52 7.31 229.17 8.09 229.17 8.96C229.17 9.93 228.44 10.49 227.16 10.49Z"></path></g></svg>